# xmcd
#
# Track frame offsets:
#	150
#	19144
#	39183
#	62167
#	72926
#	87316
#	104750
#
# Disc length: 1471 seconds
#
# Revision: 0
# Processed by: cddbd v1.4PL0 Copyright (c) Steve Scherf et al.
# Submitted via: audiograbber 1.81.01
#
DISCID=5a05bd07
DTITLE=Gary Patrick - Stuff
DYEAR=2000
DGENRE=
TTITLE0=Away From Reality
TTITLE1=September Girl
TTITLE2=Holding Myself Together
TTITLE3=Something to Cry About
TTITLE4=Voices
TTITLE5=Why I Love Her
TTITLE6=The Fish Fry
EXTD=
EXTT0=
EXTT1=
EXTT2=
EXTT3=
EXTT4=
EXTT5=
EXTT6=
PLAYORDER=
